<svg width="512" height="512" viewBox="0 0 512 512" fill="none" xmlns="http://www.w3.org/2000/svg">
<g clip-path="url(#clip0_2133_100)">
<path d="M414.767 269.299C407.423 269.299 401.468 263.344 401.468 256C401.468 175.788 336.212 110.53 255.998 110.53C248.653 110.53 242.699 104.575 242.699 97.2306C242.699 89.8866 248.653 83.9316 255.998 83.9316C350.876 83.9316 428.065 161.121 428.065 255.999C428.066 263.345 422.111 269.299 414.767 269.299Z" fill="#9580FF"/>
<path d="M256.001 428.067C161.123 428.067 83.9336 350.878 83.9336 256C83.9336 248.656 89.8876 242.701 97.2326 242.701C104.578 242.701 110.532 248.656 110.532 256C110.532 336.212 175.79 401.47 256.002 401.47C263.346 401.47 269.301 407.425 269.301 414.769C269.3 422.112 263.346 428.067 256.001 428.067Z" fill="#9580FF"/>
<path d="M255.999 428.112C188.671 428.112 123.278 399.365 66.8877 344.978C24.7397 304.327 2.54775 264.061 1.62375 262.367C-0.54125 258.399 -0.54125 253.6 1.62375 249.632C2.54775 247.938 24.7397 207.671 66.8877 167.021C123.277 112.634 188.671 83.8867 255.999 83.8867C323.327 83.8867 388.72 112.634 445.11 167.021C487.257 207.672 509.45 247.938 510.374 249.632C512.539 253.6 512.539 258.399 510.374 262.367C509.45 264.061 487.257 304.328 445.11 344.978C388.721 399.365 323.328 428.112 255.999 428.112ZM28.7588 256.005C36.5037 268.531 55.9938 297.645 85.9137 326.372C137.842 376.233 195.067 401.515 256.001 401.515C385.053 401.515 465.382 284.813 483.243 255.995C475.498 243.469 456.008 214.355 426.087 185.628C374.16 135.767 316.934 110.485 256 110.485C126.947 110.484 46.6178 227.186 28.7588 256.005Z" fill="#9580FF"/>
<path d="M256.001 172.295C223.388 172.295 195.152 190.959 181.336 218.176L220.247 255.999L181.336 293.822C195.152 321.041 223.388 339.704 256.001 339.704C302.231 339.704 339.707 302.228 339.707 255.998C339.707 209.768 302.231 172.295 256.001 172.295Z" fill="#D3C8FF"/>
<path d="M256 353.004C219.275 353.004 186.121 332.634 169.476 299.842C166.84 294.649 167.889 288.345 172.065 284.286L201.166 255.999L172.065 227.711C167.889 223.651 166.84 217.347 169.476 212.155C186.121 179.365 219.275 158.994 256 158.994C309.488 158.994 353.003 202.511 353.003 255.997C353.003 309.483 309.488 353.004 256 353.004ZM198.108 296.065C211.161 314.987 232.581 326.405 256.001 326.405C294.823 326.405 326.407 294.822 326.407 255.999C326.407 217.176 294.824 185.593 256.001 185.593C232.583 185.593 211.161 197.011 198.108 215.932L229.516 246.462C232.092 248.966 233.546 252.407 233.546 255.999C233.546 259.591 232.092 263.031 229.516 265.536L198.108 296.065Z" fill="#9580FF"/>
</g>
<defs>
<clipPath id="clip0_2133_100">
<rect width="511.999" height="511.999" fill="white"/>
</clipPath>
</defs>
</svg>
