<svg width="1098" height="360" viewBox="0 0 1098 360" fill="none" xmlns="http://www.w3.org/2000/svg">
<path d="M707.767 193.299C700.423 193.299 694.468 187.344 694.468 180C694.468 99.7876 629.212 34.5296 548.998 34.5296C541.653 34.5296 535.699 28.5746 535.699 21.2306C535.699 13.8866 541.653 7.93164 548.998 7.93164C643.876 7.93164 721.065 85.1206 721.065 179.999C721.066 187.345 715.111 193.299 707.767 193.299Z" fill="#9580FF"/>
<path d="M549.001 352.067C454.123 352.067 376.934 274.878 376.934 180C376.934 172.656 382.888 166.701 390.233 166.701C397.578 166.701 403.532 172.656 403.532 180C403.532 260.212 468.79 325.47 549.002 325.47C556.346 325.47 562.301 331.425 562.301 338.769C562.3 346.112 556.346 352.067 549.001 352.067Z" fill="#9580FF"/>
<path d="M548.999 352.112C481.671 352.112 416.278 323.365 359.888 268.978C317.74 228.327 295.548 188.061 294.624 186.367C292.459 182.399 292.459 177.6 294.624 173.632C295.548 171.938 317.74 131.671 359.888 91.0207C416.277 36.6337 481.671 7.88672 548.999 7.88672C616.327 7.88672 681.72 36.6337 738.11 91.0207C780.257 131.672 802.45 171.938 803.374 173.632C805.539 177.6 805.539 182.399 803.374 186.367C802.45 188.061 780.257 228.328 738.11 268.978C681.721 323.365 616.328 352.112 548.999 352.112ZM321.759 180.005C329.504 192.531 348.994 221.645 378.914 250.372C430.842 300.233 488.067 325.515 549.001 325.515C678.053 325.515 758.382 208.813 776.243 179.995C768.498 167.469 749.008 138.355 719.087 109.628C667.16 59.7667 609.934 34.4847 549 34.4847C419.947 34.4837 339.618 151.186 321.759 180.005Z" fill="#9580FF"/>
<path d="M549.001 96.2949C516.388 96.2949 488.152 114.959 474.336 142.176L513.247 179.999L474.336 217.822C488.152 245.041 516.388 263.704 549.001 263.704C595.231 263.704 632.707 226.228 632.707 179.998C632.707 133.768 595.231 96.2949 549.001 96.2949Z" fill="#D3C8FF"/>
<path d="M549 277.004C512.275 277.004 479.121 256.634 462.476 223.842C459.84 218.649 460.889 212.345 465.065 208.286L494.166 179.999L465.065 151.711C460.889 147.651 459.84 141.347 462.476 136.155C479.121 103.365 512.275 82.9941 549 82.9941C602.488 82.9941 646.003 126.511 646.003 179.997C646.003 233.483 602.488 277.004 549 277.004ZM491.108 220.065C504.161 238.987 525.581 250.405 549.001 250.405C587.823 250.405 619.407 218.822 619.407 179.999C619.407 141.176 587.824 109.593 549.001 109.593C525.583 109.593 504.161 121.011 491.108 139.932L522.516 170.462C525.092 172.966 526.546 176.407 526.546 179.999C526.546 183.591 525.092 187.031 522.516 189.536L491.108 220.065Z" fill="#9580FF"/>
<path d="M212.314 8.59552C214.672 12.3034 216.188 17.0225 216.862 22.7528C218.547 34.5506 219.221 46.6854 218.884 59.1573C218.884 71.2921 219.052 83.2584 219.389 95.0562C219.389 108.876 219.389 122.528 219.389 136.011C219.726 149.494 219.894 163.146 219.894 176.966V219.944H241.625C245.331 219.944 249.205 220.449 253.248 221.461C257.291 222.135 260.997 223.483 264.366 225.506C267.735 227.528 270.599 230.056 272.957 233.09C275.315 236.124 276.663 239.831 277 244.214C277 255 273.631 262.416 266.893 266.461C260.155 270.169 252.069 272.36 242.636 273.034C241.962 273.034 240.446 273.202 238.087 273.539C236.066 273.539 233.708 273.539 231.012 273.539C228.317 273.539 225.79 273.539 223.432 273.539C221.411 273.539 220.231 273.202 219.894 272.528V306.91C219.894 310.618 219.894 314.831 219.894 319.551C219.894 324.27 219.558 328.989 218.884 333.708C218.21 338.09 216.862 342.303 214.841 346.348C213.156 350.393 210.461 353.596 206.755 355.955C205.071 356.966 202.881 357.809 200.185 358.483C197.827 358.82 195.132 359.157 192.1 359.494C189.068 359.831 186.035 360 183.003 360C180.308 359.663 177.95 359.157 175.928 358.483C169.864 356.461 165.989 352.247 164.305 345.843C162.62 339.101 161.441 332.865 160.767 327.135C160.767 326.124 160.767 322.921 160.767 317.528C160.767 311.798 160.767 305.899 160.767 299.831C160.767 293.427 160.599 287.697 160.262 282.64C159.925 277.584 159.42 275.056 158.746 275.056H69.8027C60.0325 275.056 49.7568 274.888 38.9758 274.551C28.1948 274.214 18.9299 271.18 11.1811 265.449C5.11676 261.067 1.57925 256.18 0.568529 250.787C-0.442189 245.056 -0.105283 239.494 1.57925 234.101C3.60068 228.371 6.46439 222.809 10.1704 217.416C13.8763 212.022 17.4138 207.135 20.7829 202.753C33.5853 185.562 45.8824 168.034 57.6741 150.169C69.8027 132.303 81.9314 114.607 94.06 97.0787C100.798 87.9775 107.705 79.2135 114.78 70.7865C122.192 62.3596 129.098 53.5955 135.499 44.4944C140.216 37.4157 145.27 30.1686 150.66 22.7528C156.388 15.3371 163.463 9.60674 171.885 5.56179C179.971 1.85393 187.72 0 195.132 0C202.544 0 208.271 2.86517 212.314 8.59552ZM162.283 99.6068L78.3939 217.921H162.283V99.6068Z" fill="#9580FF"/>
<path d="M1033.31 8.59552C1035.67 12.3034 1037.19 17.0225 1037.86 22.7528C1039.55 34.5506 1040.22 46.6854 1039.88 59.1573C1039.88 71.2921 1040.05 83.2584 1040.39 95.0562C1040.39 108.876 1040.39 122.528 1040.39 136.011C1040.73 149.494 1040.89 163.146 1040.89 176.966V219.944H1062.62C1066.33 219.944 1070.21 220.449 1074.25 221.461C1078.29 222.135 1082 223.483 1085.37 225.506C1088.74 227.528 1091.6 230.056 1093.96 233.09C1096.32 236.124 1097.66 239.831 1098 244.214C1098 255 1094.63 262.416 1087.89 266.461C1081.15 270.169 1073.07 272.36 1063.64 273.034C1062.96 273.034 1061.45 273.202 1059.09 273.539C1057.07 273.539 1054.71 273.539 1052.01 273.539C1049.32 273.539 1046.79 273.539 1044.43 273.539C1042.41 273.539 1041.23 273.202 1040.89 272.528V306.91C1040.89 310.618 1040.89 314.831 1040.89 319.551C1040.89 324.27 1040.56 328.989 1039.88 333.708C1039.21 338.09 1037.86 342.303 1035.84 346.348C1034.16 350.393 1031.46 353.596 1027.76 355.955C1026.07 356.966 1023.88 357.809 1021.19 358.483C1018.83 358.82 1016.13 359.157 1013.1 359.494C1010.07 359.831 1007.04 360 1004 360C1001.31 359.663 998.95 359.157 996.928 358.483C990.864 356.461 986.989 352.247 985.305 345.843C983.62 339.101 982.441 332.865 981.767 327.135C981.767 326.124 981.767 322.921 981.767 317.528C981.767 311.798 981.767 305.899 981.767 299.831C981.767 293.427 981.599 287.697 981.262 282.64C980.925 277.584 980.42 275.056 979.746 275.056H890.803C881.032 275.056 870.757 274.888 859.976 274.551C849.195 274.214 839.93 271.18 832.181 265.449C826.117 261.067 822.579 256.18 821.569 250.787C820.558 245.056 820.895 239.494 822.579 234.101C824.601 228.371 827.464 222.809 831.17 217.416C834.876 212.022 838.414 207.135 841.783 202.753C854.585 185.562 866.882 168.034 878.674 150.169C890.803 132.303 902.931 114.607 915.06 97.0787C921.798 87.9775 928.705 79.2135 935.78 70.7865C943.192 62.3596 950.098 53.5955 956.499 44.4944C961.216 37.4157 966.27 30.1686 971.66 22.7528C977.388 15.3371 984.463 9.60674 992.885 5.56179C1000.97 1.85393 1008.72 0 1016.13 0C1023.54 0 1029.27 2.86517 1033.31 8.59552ZM983.283 99.6068L899.394 217.921H983.283V99.6068Z" fill="#9580FF"/>
</svg>
